<svg xmlns="http://www.w3.org/2000/svg" viewBox="0 0 600 400">
  <!-- Background -->
  <rect width="600" height="400" fill="#2A3D66" />
  
  <!-- Grid pattern -->
  <pattern id="grid" width="30" height="30" patternUnits="userSpaceOnUse">
    <path d="M 30 0 L 0 0 0 30" fill="none" stroke="#4D7EA8" stroke-opacity="0.2" stroke-width="1" />
  </pattern>
  <rect width="600" height="400" fill="url(#grid)" />
  
  <!-- Main title -->
  <text x="300" y="50" font-family="Arial, sans-serif" font-size="28" font-weight="bold" text-anchor="middle" fill="white">Interactive Data Visualization</text>
  
  <!-- World map outline -->
  <g transform="translate(70, 110) scale(0.75)">
    <!-- Simplified world map -->
    <path d="M60,80 C100,70 150,90 200,85 C250,80 300,70 350,80 C400,90 450,75 500,85 
             C550,95 600,80 600,80 L600,200 C550,190 500,210 450,200 C400,190 350,210 300,195 
             C250,180 200,195 150,185 C100,175 50,190 50,190 Z" 
          fill="#4D7EA8" opacity="0.7" />
    
    <!-- Country outlines -->
    <path d="M120,100 C130,95 140,105 150,100 C160,95 170,100 170,100 L170,160 C160,165 150,160 140,165 
             C130,170 120,165 120,165 Z" 
          fill="#D1E5F0" opacity="0.5" />
    <path d="M220,90 C230,85 240,95 250,90 C260,85 270,90 270,90 L270,150 C260,155 250,150 240,155 
             C230,160 220,155 220,155 Z" 
          fill="#D1E5F0" opacity="0.5" />
    <path d="M320,85 C330,80 340,90 350,85 C360,80 370,85 370,85 L370,145 C360,150 350,145 340,150 
             C330,155 320,150 320,150 Z" 
          fill="#D1E5F0" opacity="0.5" />
    <path d="M420,95 C430,90 440,100 450,95 C460,90 470,95 470,95 L470,155 C460,160 450,155 440,160 
             C430,165 420,160 420,160 Z" 
          fill="#D1E5F0" opacity="0.5" />
  </g>
  
  <!-- Dashboard elements -->
  <g transform="translate(100, 230)">
    <!-- Line chart -->
    <rect x="0" y="0" width="180" height="120" rx="5" fill="#1C2541" stroke="#4D7EA8" stroke-width="2" />
    <path d="M10,110 L10,10 L170,10" stroke="#4D7EA8" stroke-width="1" fill="none" />
    <path d="M10,90 L40,70 L70,80 L100,40 L130,50 L160,30" stroke="#38E4AE" stroke-width="3" fill="none" />
    <circle cx="40" cy="70" r="4" fill="#38E4AE" />
    <circle cx="70" cy="80" r="4" fill="#38E4AE" />
    <circle cx="100" cy="40" r="4" fill="#38E4AE" />
    <circle cx="130" cy="50" r="4" fill="#38E4AE" />
    <circle cx="160" cy="30" r="4" fill="#38E4AE" />
  </g>
  
  <g transform="translate(320, 230)">
    <!-- Donut chart -->
    <rect x="0" y="0" width="180" height="120" rx="5" fill="#1C2541" stroke="#4D7EA8" stroke-width="2" />
    
    <path d="M90,60 L90,20 A40,40 0 0,1 126,80 Z" fill="#6FFFE9" />
    <path d="M90,60 L126,80 A40,40 0 0,1 90,100 Z" fill="#38E4AE" />
    <path d="M90,60 L90,100 A40,40 0 0,1 54,80 Z" fill="#5BC0BE" />
    <path d="M90,60 L54,80 A40,40 0 0,1 90,20 Z" fill="#3A506B" />
    
    <circle cx="90" cy="60" r="20" fill="#1C2541" />
  </g>
  
  <!-- Interactive elements -->
  <g transform="translate(180, 190)">
    <!-- Slider -->
    <rect x="0" y="0" width="240" height="20" rx="10" fill="#1C2541" />
    <rect x="0" y="0" width="140" height="20" rx="10" fill="#4D7EA8" opacity="0.5" />
    <circle cx="140" cy="10" r="12" fill="#6FFFE9" stroke="#1C2541" stroke-width="2" />
    
    <!-- Year labels -->
    <text x="0" y="35" font-family="Arial, sans-serif" font-size="12" text-anchor="start" fill="white">2000</text>
    <text x="240" y="35" font-family="Arial, sans-serif" font-size="12" text-anchor="end" fill="white">2024</text>
  </g>
  
  <!-- Technologies section -->
  <g transform="translate(120, 370)">
    <rect x="0" y="0" width="90" height="30" rx="15" fill="#5BC0BE" opacity="0.9" />
    <text x="45" y="20" font-family="Arial, sans-serif" font-size="14" text-anchor="middle" fill="#1C2541">D3.js</text>
  </g>
  
  <g transform="translate(220, 370)">
    <rect x="0" y="0" width="120" height="30" rx="15" fill="#3A506B" opacity="0.9" />
    <text x="60" y="20" font-family="Arial, sans-serif" font-size="14" text-anchor="middle" fill="white">JavaScript</text>
  </g>
  
  <g transform="translate(350, 370)">
    <rect x="0" y="0" width="120" height="30" rx="15" fill="#6FFFE9" opacity="0.9" />
    <text x="60" y="20" font-family="Arial, sans-serif" font-size="14" text-anchor="middle" fill="#1C2541">Economics</text>
  </g>
</svg>
