<svg xmlns="http://www.w3.org/2000/svg" viewBox="0 0 600 400">
  <!-- Background -->
  <rect width="600" height="400" fill="#0B6E4F" />
  
  <!-- Grid pattern -->
  <pattern id="grid" width="30" height="30" patternUnits="userSpaceOnUse">
    <path d="M 30 0 L 0 0 0 30" fill="none" stroke="#FFFFFF" stroke-opacity="0.1" stroke-width="1" />
  </pattern>
  <rect width="600" height="400" fill="url(#grid)" />
  
  <!-- Main title -->
  <text x="300" y="50" font-family="Arial, sans-serif" font-size="28" font-weight="bold" text-anchor="middle" fill="white">Cyclistic Bike Share Analysis</text>
  
  <!-- Bike station markers -->
  <g transform="translate(0,20)">
    <!-- City map background -->
    <rect x="100" y="100" width="400" height="200" rx="5" fill="#08482E" />
    
    <!-- Roads -->
    <path d="M 100 150 H 500 M 100 250 H 500 M 150 100 V 300 M 250 100 V 300 M 350 100 V 300 M 450 100 V 300" 
          stroke="#2A9D8F" stroke-width="3" stroke-opacity="0.5" />
    
    <!-- Bike stations -->
    <circle cx="150" cy="150" r="8" fill="#F4A261" />
    <circle cx="250" cy="150" r="10" fill="#F4A261" />
    <circle cx="350" cy="150" r="6" fill="#F4A261" />
    <circle cx="450" cy="150" r="9" fill="#F4A261" />
    
    <circle cx="150" cy="250" r="11" fill="#F4A261" />
    <circle cx="250" cy="250" r="7" fill="#F4A261" />
    <circle cx="350" cy="250" r="12" fill="#F4A261" />
    <circle cx="450" cy="250" r="8" fill="#F4A261" />
  </g>
  
  <!-- Bike icon -->
  <g transform="translate(140, 180) scale(0.8)">
    <circle cx="110" cy="110" r="30" fill="none" stroke="white" stroke-width="6"/>
    <circle cx="200" cy="110" r="30" fill="none" stroke="white" stroke-width="6"/>
    <path d="M110,110 L160,70 L200,110 L160,160 Z" fill="none" stroke="white" stroke-width="6"/>
    <line x1="160" y1="70" x2="160" y2="40" stroke="white" stroke-width="6"/>
    <path d="M165,40 C175,40 175,35 165,35 L140,35 C130,35 130,40 140,40 Z" fill="white"/>
  </g>
  
  <!-- Data visualization elements -->
  <g transform="translate(390, 130)">
    <!-- Weekly bar chart -->
    <rect x="0" y="40" width="15" height="30" fill="#E76F51" />
    <rect x="20" y="40" width="15" height="30" fill="#E76F51" />
    <rect x="40" y="20" width="15" height="50" fill="#E76F51" />
    <rect x="60" y="10" width="15" height="60" fill="#E76F51" />
    <rect x="80" y="0" width="15" height="70" fill="#E76F51" />
    <rect x="100" y="5" width="15" height="65" fill="#E76F51" />
    <rect x="120" y="35" width="15" height="35" fill="#E76F51" />
    
    <!-- Labels -->
    <text x="7" y="85" font-family="Arial, sans-serif" font-size="10" text-anchor="middle" fill="white">M</text>
    <text x="27" y="85" font-family="Arial, sans-serif" font-size="10" text-anchor="middle" fill="white">T</text>
    <text x="47" y="85" font-family="Arial, sans-serif" font-size="10" text-anchor="middle" fill="white">W</text>
    <text x="67" y="85" font-family="Arial, sans-serif" font-size="10" text-anchor="middle" fill="white">T</text>
    <text x="87" y="85" font-family="Arial, sans-serif" font-size="10" text-anchor="middle" fill="white">F</text>
    <text x="107" y="85" font-family="Arial, sans-serif" font-size="10" text-anchor="middle" fill="white">S</text>
    <text x="127" y="85" font-family="Arial, sans-serif" font-size="10" text-anchor="middle" fill="white">S</text>
  </g>
  
  <!-- Technologies section -->
  <g transform="translate(120, 350)">
    <rect x="0" y="0" width="80" height="30" rx="15" fill="#F4A261" opacity="0.9" />
    <text x="40" y="20" font-family="Arial, sans-serif" font-size="14" text-anchor="middle" fill="#333">R</text>
  </g>
  
  <g transform="translate(210, 350)">
    <rect x="0" y="0" width="120" height="30" rx="15" fill="#2A9D8F" opacity="0.9" />
    <text x="60" y="20" font-family="Arial, sans-serif" font-size="14" text-anchor="middle" fill="white">Tableau</text>
  </g>
  
  <g transform="translate(340, 350)">
    <rect x="0" y="0" width="140" height="30" rx="15" fill="#E76F51" opacity="0.9" />
    <text x="70" y="20" font-family="Arial, sans-serif" font-size="14" text-anchor="middle" fill="white">Data Analysis</text>
  </g>
</svg>
